<?xml version="1.0" encoding="UTF-8" standalone="no"?>
<svg
   xmlns:dc="http://purl.org/dc/elements/1.1/"
   xmlns:cc="http://creativecommons.org/ns#"
   xmlns:rdf="http://www.w3.org/1999/02/22-rdf-syntax-ns#"
   xmlns:svg="http://www.w3.org/2000/svg"
   xmlns="http://www.w3.org/2000/svg"
   xmlns:sodipodi="http://sodipodi.sourceforge.net/DTD/sodipodi-0.dtd"
   xmlns:inkscape="http://www.inkscape.org/namespaces/inkscape"
   version="1.1"
   height="122.5"
   width="650.375"
   sodipodi:docname="logo_ryzen.svg"
   inkscape:version="0.92.0 r15299">
  <metadata>
    <rdf:RDF>
      <cc:Work
         rdf:about="">
        <dc:format>image/svg+xml</dc:format>
        <dc:type
           rdf:resource="http://purl.org/dc/dcmitype/StillImage" />
        <dc:title></dc:title>
      </cc:Work>
    </rdf:RDF>
  </metadata>
  <path
     id="path75"
     d="m 10,10 v 20.625 h 86.375001 l 0.5,20.375 H 10 v 61.5 H 32.375 V 70.999997 h 39.250001 l 24.5,41.500003 H 121.625 L 97.875001,71.999997 C 108.79214,71.999997 119.625,66.086967 119.625,57.5 V 25.75 C 119.625,17.23112 109.96342,10 97.625001,10 Z m 129.375,0 43.5,62.374997 V 112.5 h 20 V 72.374997 L 249.375,10 h -26.25 l -30.25,40 -29.5,-40 z m 131.75,0 v 20.625 h 72.25 l -72.25,61.624997 V 112.5 H 375.5 V 92.249997 H 303.625 L 375.5,30.625 V 10 Z M 404,10 V 30.625 H 507.75 V 10 Z m 155.5,0 H 536.625 V 112.5 H 559.5 v -69 l 59.25,69 h 21.625 V 10 H 618.75 V 77.499997 Z M 404,51 v 61.5 H 507.75 V 92.249997 h -83.125 v -21 H 507.75 V 51 Z"
     style="fill:#000000;stroke:none;"
     inkscape:connector-curvature="0" />
</svg>
